<?xml version="1.0" encoding="UTF-8" standalone="no"?>
<!DOCTYPE svg PUBLIC "-//W3C//DTD SVG 1.1//EN" "http://www.w3.org/Graphics/SVG/1.1/DTD/svg11.dtd">
<svg width="100%" height="100%" viewBox="0 0 3300 2200" version="1.1" xmlns="http://www.w3.org/2000/svg" xmlns:xlink="http://www.w3.org/1999/xlink" xml:space="preserve" xmlns:serif="http://www.serif.com/" style="fill-rule:evenodd;clip-rule:evenodd;">
    <g id="Notes">
        <g id="artboard" transform="matrix(1,0,0,1,20.9072,-6.78216)">
            <rect x="0" y="0" width="3300" height="2200" style="fill:white;"/>
        </g>
        <path d="M263,292L3036,292" style="fill:none;fill-rule:nonzero;stroke:black;stroke-width:0.5px;"/>
        <g transform="matrix(1,0,0,1,263,322)">
            <text x="0px" y="0px" style="font-family:'SFProDisplay-Regular', 'SF Pro Display';font-size:16px;">W<tspan x="13.922px " y="0px ">e</tspan>ight/Scale V<tspan x="101.313px " y="0px ">a</tspan>riations</text>
        </g>
        <g transform="matrix(1,0,0,1,559.711,322)">
            <text x="-30.41px" y="0px" style="font-family:'SFProDisplay-Regular', 'SF Pro Display';font-size:16px;">Ultr<tspan x="-6.41px " y="0px ">a</tspan>light</text>
        </g>
        <g transform="matrix(1,0,0,1,856.422,322)">
            <text x="-14.824px" y="0px" style="font-family:'SFProDisplay-Regular', 'SF Pro Display';font-size:16px;">Thin</text>
        </g>
        <g transform="matrix(1,0,0,1,1153.13,322)">
            <text x="-16.957px" y="0px" style="font-family:'SFProDisplay-Regular', 'SF Pro Display';font-size:16px;">Light</text>
        </g>
        <g transform="matrix(1,0,0,1,1449.84,322)">
            <text x="-25.609px" y="0px" style="font-family:'SFProDisplay-Regular', 'SF Pro Display';font-size:16px;">Regular</text>
        </g>
        <g transform="matrix(1,0,0,1,1746.56,322)">
            <text x="-27.465px" y="0px" style="font-family:'SFProDisplay-Regular', 'SF Pro Display';font-size:16px;">Medium</text>
        </g>
        <g transform="matrix(1,0,0,1,2043.27,322)">
            <text x="-31.656px" y="0px" style="font-family:'SFProDisplay-Regular', 'SF Pro Display';font-size:16px;">Semibold</text>
        </g>
        <g transform="matrix(1,0,0,1,2339.98,322)">
            <text x="-15.145px" y="0px" style="font-family:'SFProDisplay-Regular', 'SF Pro Display';font-size:16px;">Bold</text>
        </g>
        <g transform="matrix(1,0,0,1,2636.69,322)">
            <text x="-21.461px" y="0px" style="font-family:'SFProDisplay-Regular', 'SF Pro Display';font-size:16px;">Heavy</text>
        </g>
        <g transform="matrix(1,0,0,1,2933.4,322)">
            <text x="-18.375px" y="0px" style="font-family:'SFProDisplay-Regular', 'SF Pro Display';font-size:16px;">Black</text>
        </g>
        <path d="M263,1903L3036,1903" style="fill:none;fill-rule:nonzero;stroke:black;stroke-width:0.5px;"/>
        <g transform="matrix(1,0,0,1,263,1933)">
            <path d="M9.248,0.83C13.555,0.83 17.139,-2.744 17.139,-7.051C17.139,-11.357 13.545,-14.932 9.238,-14.932C4.941,-14.932 1.367,-11.357 1.367,-7.051C1.367,-2.744 4.951,0.83 9.248,0.83ZM9.248,-0.654C5.703,-0.654 2.871,-3.496 2.871,-7.051C2.871,-10.605 5.693,-13.447 9.238,-13.447C12.793,-13.447 15.635,-10.605 15.645,-7.051C15.654,-3.496 12.803,-0.654 9.248,-0.654ZM6.396,-6.318L8.506,-6.318L8.506,-4.199C8.506,-3.76 8.799,-3.457 9.229,-3.457C9.678,-3.457 9.971,-3.76 9.971,-4.199L9.971,-6.318L12.1,-6.318C12.539,-6.318 12.842,-6.611 12.842,-7.041C12.842,-7.48 12.539,-7.783 12.1,-7.783L9.971,-7.783L9.971,-9.893C9.971,-10.342 9.678,-10.645 9.229,-10.645C8.799,-10.645 8.506,-10.342 8.506,-9.893L8.506,-7.783L6.396,-7.783C5.947,-7.783 5.645,-7.48 5.645,-7.041C5.645,-6.611 5.947,-6.318 6.396,-6.318Z" style="fill-rule:nonzero;"/>
        </g>
        <g transform="matrix(1,0,0,1,281.506,1933)">
            <path d="M11.709,2.91C17.158,2.91 21.67,-1.611 21.67,-7.051C21.67,-12.5 17.148,-17.012 11.699,-17.012C6.26,-17.012 1.748,-12.5 1.748,-7.051C1.748,-1.611 6.27,2.91 11.709,2.91ZM11.709,1.25C7.1,1.25 3.418,-2.441 3.418,-7.051C3.418,-11.66 7.09,-15.352 11.699,-15.352C16.309,-15.352 20,-11.66 20.01,-7.051C20.02,-2.441 16.318,1.25 11.709,1.25ZM7.988,-6.23L10.879,-6.23L10.879,-3.32C10.879,-2.832 11.211,-2.5 11.69,-2.5C12.178,-2.5 12.52,-2.832 12.52,-3.32L12.52,-6.23L15.43,-6.23C15.918,-6.23 16.25,-6.563 16.25,-7.041C16.25,-7.529 15.918,-7.871 15.43,-7.871L12.52,-7.871L12.52,-10.762C12.52,-11.27 12.178,-11.602 11.69,-11.602C11.211,-11.602 10.879,-11.26 10.879,-10.762L10.879,-7.871L7.988,-7.871C7.48,-7.871 7.148,-7.529 7.148,-7.041C7.148,-6.563 7.49,-6.23 7.988,-6.23Z" style="fill-rule:nonzero;"/>
        </g>
        <g transform="matrix(1,0,0,1,304.924,1933)">
            <path d="M14.971,5.664C21.934,5.664 27.695,-0.098 27.695,-7.051C27.695,-14.014 21.924,-19.775 14.961,-19.775C8.008,-19.775 2.256,-14.014 2.256,-7.051C2.256,-0.098 8.018,5.664 14.971,5.664ZM14.971,3.848C8.936,3.848 4.082,-1.016 4.082,-7.051C4.082,-13.096 8.926,-17.949 14.961,-17.949C21.006,-17.949 25.859,-13.096 25.869,-7.051C25.879,-1.016 21.016,3.848 14.971,3.848ZM10.059,-6.143L14.063,-6.143L14.063,-2.129C14.063,-1.592 14.434,-1.221 14.951,-1.221C15.488,-1.221 15.859,-1.592 15.859,-2.129L15.859,-6.143L19.883,-6.143C20.41,-6.143 20.791,-6.514 20.791,-7.031C20.791,-7.568 20.42,-7.949 19.883,-7.949L15.859,-7.949L15.859,-11.953C15.859,-12.51 15.488,-12.881 14.951,-12.881C14.434,-12.881 14.063,-12.5 14.063,-11.953L14.063,-7.949L10.059,-7.949C9.502,-7.949 9.131,-7.568 9.131,-7.031C9.131,-6.514 9.512,-6.143 10.059,-6.143Z" style="fill-rule:nonzero;"/>
        </g>
        <g transform="matrix(1,0,0,1,263,1953)">
            <text x="0px" y="0px" style="font-family:'SFProDisplay-Regular', 'SF Pro Display';font-size:16px;">Design V<tspan x="59.211px " y="0px ">a</tspan>riations</text>
        </g>
        <g transform="matrix(1,0,0,1,263,1971)">
            <text x="0px" y="0px" style="font-family:'SFProDisplay-Regular', 'SF Pro Display';font-size:16px;">Symbols ar<tspan x="74.039px " y="0px ">e</tspan> support<tspan x="136.977px " y="0px ">e</tspan>d in up t<tspan x="197.406px " y="0px ">o</tspan> nine weights and thr<tspan x="343.289px " y="0px ">e</tspan>e scales.</text>
        </g>
        <g transform="matrix(1,0,0,1,263,1989)">
            <text x="0px" y="0px" style="font-family:'SFProDisplay-Regular', 'SF Pro Display';font-size:16px;">F<tspan x="8.133px " y="0px ">o</tspan>r optimal lay<tspan x="96.43px " y="0px ">o</tspan>ut with t<tspan x="157.508px 165.547px " y="0px 0px ">ex</tspan>t and other symbols,<tspan x="306.883px 310.164px 317.578px " y="0px 0px 0px "> ve</tspan>rtically align</text>
        </g>
        <g transform="matrix(1,0,0,1,263,2007)">
            <text x="0px" y="0px" style="font-family:'SFProDisplay-Regular', 'SF Pro Display';font-size:16px;">symbols with the adjacent t<tspan x="181.344px 189.383px " y="0px 0px ">ex</tspan>t.</text>
        </g>
        <path d="M776,1919L776,1933" style="fill:none;fill-rule:nonzero;stroke:rgb(0,174,239);stroke-width:0.5px;"/>
        <g transform="matrix(1,0,0,1,776,1933)">
            <path d="M3.311,0.127C3.828,0.127 4.082,-0.068 4.268,-0.605L5.527,-4.063L11.289,-4.063L12.549,-0.605C12.734,-0.068 12.988,0.127 13.496,0.127C14.014,0.127 14.346,-0.186 14.346,-0.674C14.346,-0.84 14.316,-0.986 14.238,-1.201L9.658,-13.389C9.434,-13.994 9.033,-14.287 8.408,-14.287C7.803,-14.287 7.393,-13.994 7.178,-13.398L2.598,-1.191C2.52,-0.977 2.49,-0.83 2.49,-0.664C2.49,-0.176 2.803,0.127 3.311,0.127ZM6.006,-5.537L8.379,-12.109L8.428,-12.109L10.801,-5.537L6.006,-5.537Z" style="fill-rule:nonzero;"/>
        </g>
        <path d="M792.836,1919L792.836,1933" style="fill:none;fill-rule:nonzero;stroke:rgb(0,174,239);stroke-width:0.5px;"/>
        <g transform="matrix(1,0,0,1,776,1953)">
            <text x="0px" y="0px" style="font-family:'SFProDisplay-Regular', 'SF Pro Display';font-size:16px;">M<tspan x="13.063px 21.094px 25.633px " y="0px 0px 0px ">arg</tspan>ins</text>
        </g>
        <g transform="matrix(1,0,0,1,776,1971)">
            <text x="0px" y="0px" style="font-family:'SFProDisplay-Regular', 'SF Pro Display';font-size:16px;">L<tspan x="8.156px " y="0px ">e</tspan>ading and tr<tspan x="95.227px " y="0px ">a</tspan>iling mar<tspan x="159.031px " y="0px ">g</tspan>ins on the left and right side of each symbol</text>
        </g>
        <g transform="matrix(1,0,0,1,776,1989)">
            <text x="0px" y="0px" style="font-family:'SFProDisplay-Regular', 'SF Pro Display';font-size:16px;">can be adjust<tspan x="88.727px " y="0px ">e</tspan>d b<tspan x="117.609px " y="0px ">y</tspan> modifying the x<tspan x="230.703px " y="0px ">-</tspan>location of the mar<tspan x="360.664px " y="0px ">g</tspan>in guidelines.</text>
        </g>
        <g transform="matrix(1,0,0,1,776,2007)">
            <text x="0px" y="0px" style="font-family:'SFProDisplay-Regular', 'SF Pro Display';font-size:16px;">Modifications ar<tspan x="106.484px " y="0px ">e</tspan> aut<tspan x="139.008px " y="0px ">o</tspan>matically applied pr<tspan x="275.977px " y="0px ">o</tspan>portionally t<tspan x="361.93px " y="0px ">o</tspan> all</text>
        </g>
        <g transform="matrix(1,0,0,1,776,2025)">
            <text x="0px" y="0px" style="font-family:'SFProDisplay-Regular', 'SF Pro Display';font-size:16px;">scales and weights.</text>
        </g>
        <g transform="matrix(1,0,0,1,1289,1933)">
            <path d="M2.842,1.865L4.541,3.574C5.4,4.443 6.387,4.385 7.314,3.359L17.49,-7.852C17.754,-7.764 18.027,-7.783 18.34,-7.842L19.404,-8.037L20.068,-7.363L20.029,-6.807C19.99,-6.309 20.117,-5.928 20.606,-5.449L21.367,-4.707C21.846,-4.229 22.461,-4.199 22.93,-4.668L25.84,-7.588C26.309,-8.057 26.289,-8.652 25.811,-9.131L25.039,-9.893C24.561,-10.371 24.19,-10.527 23.711,-10.488L23.135,-10.44L22.49,-11.074L22.734,-12.197C22.861,-12.764 22.705,-13.203 22.119,-13.789L19.922,-15.977C16.582,-19.297 12.148,-19.219 9.258,-16.328C8.838,-15.918 8.809,-15.342 9.043,-14.951C9.277,-14.59 9.736,-14.355 10.381,-14.522C11.846,-14.863 13.369,-14.922 14.795,-13.984L14.209,-12.529C14.014,-12.051 13.984,-11.65 14.111,-11.289L3.047,-0.898C2.061,0.02 1.982,0.996 2.842,1.865ZM10.752,-15.957C13.184,-17.734 16.475,-17.432 18.701,-15.205L21.133,-12.793C21.367,-12.559 21.406,-12.373 21.338,-12.031L21.016,-10.547L22.52,-9.063L23.506,-9.121C23.76,-9.131 23.838,-9.111 24.033,-8.916L24.609,-8.34L22.168,-5.898L21.592,-6.475C21.397,-6.67 21.367,-6.748 21.377,-7.012L21.445,-7.988L19.951,-9.473L18.428,-9.219C18.106,-9.15 17.959,-9.18 17.715,-9.414L15.713,-11.416C15.459,-11.65 15.43,-11.816 15.586,-12.188L16.465,-14.277C14.902,-15.732 12.871,-16.357 10.84,-15.762C10.684,-15.723 10.625,-15.85 10.752,-15.957ZM5.273,2.305L4.102,1.143C3.633,0.684 3.74,0.342 4.141,-0.02L14.951,-10.195L16.416,-8.711L6.426,2.275C6.074,2.676 5.742,2.773 5.273,2.305Z" style="fill-rule:nonzero;"/>
        </g>
        <g transform="matrix(1,0,0,1,1289,1953)">
            <text x="0px" y="0px" style="font-family:'SFProDisplay-Regular', 'SF Pro Display';font-size:16px;">Exporting</text>
        </g>
        <g transform="matrix(1,0,0,1,1289,1971)">
            <text x="0px" y="0px" style="font-family:'SFProDisplay-Regular', 'SF Pro Display';font-size:16px;">Symbols should be outlined when e<tspan x="235.289px " y="0px ">x</tspan>porting t<tspan x="298.188px " y="0px ">o</tspan> ensur<tspan x="347px " y="0px ">e</tspan> the</text>
        </g>
        <g transform="matrix(1,0,0,1,1289,1989)">
            <text x="0px" y="0px" style="font-family:'SFProDisplay-Regular', 'SF Pro Display';font-size:16px;">design is pr<tspan x="75.641px " y="0px ">e</tspan>serv<tspan x="111.82px " y="0px ">e</tspan>d when submitting t<tspan x="251.031px " y="0px ">o</tspan> X<tspan x="272.414px " y="0px ">c</tspan>ode.</text>
        </g>
        <g id="template-version" transform="matrix(1,0,0,1,3036,1933)">
            <text x="-96.57px" y="0px" style="font-family:'SFProDisplay-Regular', 'SF Pro Display';font-size:16px;">T<tspan x="-89.383px " y="0px ">e</tspan>mplat<tspan x="-43.664px " y="0px ">e</tspan> v<tspan x="-25.633px " y="0px ">.</tspan>2.0</text>
        </g>
        <g transform="matrix(1,0,0,1,3036,1951)">
            <text x="-191.594px" y="0px" style="font-family:'SFProDisplay-Regular', 'SF Pro Display';font-size:16px;">Requir<tspan x="-148.766px " y="0px ">e</tspan>s X<tspan x="-120.234px " y="0px ">c</tspan>ode 12 or gr<tspan x="-33.938px " y="0px ">e</tspan>at<tspan x="-13.125px " y="0px ">e</tspan>r</text>
        </g>
        <g transform="matrix(1,0,0,1,3036,1969)">
            <text x="-159.133px" y="0px" style="font-family:'SFProDisplay-Regular', 'SF Pro Display';font-size:16px;">Gener<tspan x="-118.234px -110.203px -105.617px " y="0px 0px 0px ">ate</tspan>d fr<tspan x="-75.883px " y="0px ">o</tspan>m cone.fill</text>
        </g>
        <g transform="matrix(1,0,0,1,3036,1987)">
            <text x="-143.117px" y="0px" style="font-family:'SFProDisplay-Regular', 'SF Pro Display';font-size:16px;">T<tspan x="-135.695px " y="0px ">y</tspan>peset at 100 points</text>
        </g>
        <g transform="matrix(1,0,0,1,263,726)">
            <text x="0px" y="0px" style="font-family:'SFProDisplay-Regular', 'SF Pro Display';font-size:16px;">Small</text>
        </g>
        <g transform="matrix(1,0,0,1,263,1156)">
            <text x="0px" y="0px" style="font-family:'SFProDisplay-Regular', 'SF Pro Display';font-size:16px;">Medium</text>
        </g>
        <g transform="matrix(1,0,0,1,263,1586)">
            <text x="0px" y="0px" style="font-family:'SFProDisplay-Regular', 'SF Pro Display';font-size:16px;">Lar<tspan x="20.961px " y="0px ">g</tspan>e</text>
        </g>
    </g>
    <g id="Guides">
        <g id="H-reference" transform="matrix(1,0,0,1,339,696)">
            <path d="M0.977,0L3.662,0L12.988,-24.463L45.752,-24.463L55.127,0L57.764,0L30.615,-70.459L28.125,-70.459L0.977,0ZM29.346,-67.139L29.443,-67.139L44.873,-26.709L13.867,-26.709L29.346,-67.139Z" style="fill:rgb(39,170,225);fill-rule:nonzero;"/>
        </g>
        <path id="Baseline-S" d="M263,696L3036,696" style="fill:none;fill-rule:nonzero;stroke:rgb(39,170,225);stroke-width:0.5px;"/>
        <path id="Capline-S" d="M263,625.541L3036,625.541" style="fill:none;fill-rule:nonzero;stroke:rgb(39,170,225);stroke-width:0.5px;"/>
        <g id="H-reference1" serif:id="H-reference" transform="matrix(1,0,0,1,339,1126)">
            <path d="M0.977,0L3.662,0L12.988,-24.463L45.752,-24.463L55.127,0L57.764,0L30.615,-70.459L28.125,-70.459L0.977,0ZM29.346,-67.139L29.443,-67.139L44.873,-26.709L13.867,-26.709L29.346,-67.139Z" style="fill:rgb(39,170,225);fill-rule:nonzero;"/>
        </g>
        <path id="Baseline-M" d="M263,1126L3036,1126" style="fill:none;fill-rule:nonzero;stroke:rgb(39,170,225);stroke-width:0.5px;"/>
        <path id="Capline-M" d="M263,1055.54L3036,1055.54" style="fill:none;fill-rule:nonzero;stroke:rgb(39,170,225);stroke-width:0.5px;"/>
        <g id="H-reference2" serif:id="H-reference" transform="matrix(1,0,0,1,339,1556)">
            <path d="M0.977,0L3.662,0L12.988,-24.463L45.752,-24.463L55.127,0L57.764,0L30.615,-70.459L28.125,-70.459L0.977,0ZM29.346,-67.139L29.443,-67.139L44.873,-26.709L13.867,-26.709L29.346,-67.139Z" style="fill:rgb(39,170,225);fill-rule:nonzero;"/>
        </g>
        <path id="Baseline-L" d="M263,1556L3036,1556" style="fill:none;fill-rule:nonzero;stroke:rgb(39,170,225);stroke-width:0.5px;"/>
        <path id="Capline-L" d="M263,1485.54L3036,1485.54" style="fill:none;fill-rule:nonzero;stroke:rgb(39,170,225);stroke-width:0.5px;"/>
        <path id="left-margin" d="M1390.76,1030.79L1390.76,1150.12" style="fill:none;fill-rule:nonzero;stroke:rgb(0,174,239);stroke-width:0.5px;"/>
        <path id="right-margin" d="M1508.93,1030.79L1508.93,1150.12" style="fill:none;fill-rule:nonzero;stroke:rgb(0,174,239);stroke-width:0.5px;"/>
    </g>
    <g id="Symbols">
        <g id="Black-L" transform="matrix(1,0,0,1,2851.3,1556)">
            <path d="M12.891,8.105C12.94,25.147 39.258,38.184 82.129,38.184C124.951,38.184 151.27,25.147 151.318,8.105C151.318,4.932 150.244,1.367 148.242,-2.197L92.725,-99.805C90.43,-103.857 86.426,-105.859 82.129,-105.859C77.783,-105.859 73.779,-103.857 71.484,-99.805L15.967,-2.197C13.965,1.367 12.891,4.932 12.891,8.105Z" style="fill-rule:nonzero;"/>
        </g>
        <g id="Heavy-L" transform="matrix(1,0,0,1,2556.12,1556)">
            <path d="M12.891,8.057C12.94,24.512 39.258,37.012 80.566,37.012C121.875,37.012 148.193,24.512 148.242,8.057C148.242,5.176 147.217,1.807 145.41,-1.514L90.039,-99.512C87.891,-103.271 84.326,-104.932 80.566,-104.932C76.807,-104.932 73.242,-103.271 71.143,-99.512L15.772,-1.514C13.916,1.807 12.891,5.176 12.891,8.057Z" style="fill-rule:nonzero;"/>
        </g>
        <g id="Bold-L" transform="matrix(1,0,0,1,2261.12,1556)">
            <path d="M12.891,8.008C12.94,23.731 39.258,35.693 78.857,35.693C118.408,35.693 144.775,23.731 144.824,8.008C144.824,5.42 143.848,2.295 142.188,-0.684L86.963,-99.121C85.059,-102.588 82.031,-103.906 78.857,-103.906C75.684,-103.906 72.656,-102.588 70.703,-99.121L15.527,-0.684C13.818,2.295 12.891,5.42 12.891,8.008Z" style="fill-rule:nonzero;"/>
        </g>
        <g id="Semibold-L" transform="matrix(1,0,0,1,1965.61,1556)">
            <path d="M12.891,7.959C12.891,23.242 39.307,34.766 77.686,34.766C116.064,34.766 142.432,23.242 142.432,7.959C142.432,5.615 141.504,2.637 139.99,-0.146L84.912,-98.877C83.106,-102.1 80.42,-103.223 77.686,-103.223C74.951,-103.223 72.217,-102.1 70.459,-98.877L15.332,-0.146C13.77,2.637 12.891,5.615 12.891,7.959Z" style="fill-rule:nonzero;"/>
        </g>
        <g id="Medium-L" transform="matrix(1,0,0,1,1669.8,1556)">
            <path d="M12.891,7.959C12.891,22.852 39.307,34.033 76.758,34.033C114.258,34.033 140.625,22.852 140.625,7.959C140.625,5.762 139.746,2.93 138.33,0.293L83.301,-98.682C81.592,-101.758 79.199,-102.686 76.758,-102.686C74.365,-102.686 71.924,-101.758 70.215,-98.682L15.185,0.293C13.77,2.93 12.891,5.762 12.891,7.959Z" style="fill-rule:nonzero;"/>
        </g>
        <g id="Regular-L" transform="matrix(1,0,0,1,1374.26,1556)">
            <path d="M12.891,7.91C12.891,22.315 39.307,33.154 75.586,33.154C111.865,33.154 138.281,22.315 138.281,7.91C138.281,5.957 137.451,3.271 136.133,0.83L81.25,-98.438C79.688,-101.27 77.588,-102.002 75.586,-102.002C73.584,-102.002 71.533,-101.27 69.971,-98.438L15.039,0.83C13.721,3.271 12.891,5.957 12.891,7.91Z" style="fill-rule:nonzero;"/>
        </g>
        <g id="Light-L" transform="matrix(1,0,0,1,1078.45,1556)">
            <path d="M12.891,7.91C12.891,21.631 39.014,32.227 74.658,32.227C110.352,32.227 136.475,21.631 136.475,7.91C136.475,6.104 135.791,3.809 134.668,1.758L79.883,-96.973C78.565,-99.365 76.611,-100.195 74.658,-100.195C72.705,-100.195 70.801,-99.365 69.434,-96.973L14.697,1.758C13.525,3.809 12.891,6.104 12.891,7.91Z" style="fill-rule:nonzero;"/>
        </g>
        <g id="Thin-L" transform="matrix(1,0,0,1,782.985,1556)">
            <path d="M12.891,7.91C12.891,20.703 38.574,31.006 73.438,31.006C108.301,31.006 133.984,20.703 133.984,7.91C133.984,6.25 133.545,4.59 132.666,2.93L78.125,-94.971C77.051,-96.826 75.342,-97.803 73.438,-97.803C71.582,-97.803 69.824,-96.826 68.799,-94.971L14.209,2.93C13.281,4.59 12.891,6.25 12.891,7.91Z" style="fill-rule:nonzero;"/>
        </g>
        <g id="Ultralight-L" transform="matrix(1,0,0,1,486.884,1556)">
            <path d="M12.891,7.91C12.891,20.215 38.379,30.371 72.803,30.371C107.275,30.371 132.764,20.215 132.764,7.91C132.764,6.348 132.422,4.98 131.641,3.564L77.197,-93.945C76.318,-95.508 74.658,-96.631 72.803,-96.631C70.996,-96.631 69.336,-95.508 68.457,-93.945L13.965,3.564C13.135,4.98 12.891,6.348 12.891,7.91Z" style="fill-rule:nonzero;"/>
        </g>
        <g id="Black-M" transform="matrix(1,0,0,1,2868.21,1126)">
            <path d="M9.961,-1.611C10.01,12.109 30.225,22.803 65.186,22.803C100.146,22.803 120.361,12.109 120.41,-1.611C120.41,-4.346 119.58,-7.178 117.92,-10.107L74.756,-84.912C72.9,-88.232 69.238,-90.234 65.186,-90.234C61.133,-90.234 57.471,-88.232 55.615,-84.912L12.451,-10.107C10.791,-7.178 9.961,-4.346 9.961,-1.611Z" style="fill-rule:nonzero;"/>
        </g>
        <g id="Heavy-M" transform="matrix(1,0,0,1,2572.94,1126)">
            <path d="M9.961,-1.66C10.01,11.523 30.273,21.729 63.721,21.729C97.168,21.729 117.48,11.523 117.529,-1.66C117.529,-4.15 116.748,-6.836 115.186,-9.57L72.168,-84.961C70.41,-88.037 67.188,-89.697 63.721,-89.697C60.303,-89.697 57.08,-88.037 55.322,-84.961L12.305,-9.57C10.742,-6.836 9.961,-4.15 9.961,-1.66Z" style="fill-rule:nonzero;"/>
        </g>
        <g id="Bold-M" transform="matrix(1,0,0,1,2277.84,1126)">
            <path d="M9.961,-1.709C10.01,10.938 30.42,20.557 62.109,20.557C93.848,20.557 114.258,10.938 114.307,-1.709C114.307,-3.857 113.525,-6.445 112.109,-8.936L69.238,-85.01C67.627,-87.891 64.941,-89.111 62.109,-89.111C59.326,-89.111 56.641,-87.891 55.029,-85.01L12.158,-8.936C10.742,-6.445 9.961,-3.857 9.961,-1.709Z" style="fill-rule:nonzero;"/>
        </g>
        <g id="Semibold-M" transform="matrix(1,0,0,1,1982.26,1126)">
            <path d="M9.961,-1.709C9.961,10.498 30.469,19.727 61.035,19.727C91.553,19.727 112.061,10.498 112.061,-1.709C112.061,-3.711 111.328,-6.201 110.01,-8.545L67.236,-85.01C65.723,-87.744 63.379,-88.721 61.035,-88.721C58.643,-88.721 56.348,-87.744 54.834,-85.01L12.012,-8.545C10.742,-6.201 9.961,-3.711 9.961,-1.709Z" style="fill-rule:nonzero;"/>
        </g>
        <g id="Medium-M" transform="matrix(1,0,0,1,1686.37,1126)">
            <path d="M9.961,-1.758C9.961,10.205 30.518,19.092 60.156,19.092C89.844,19.092 110.4,10.205 110.4,-1.758C110.4,-3.564 109.619,-6.006 108.398,-8.203L65.674,-85.059C64.258,-87.647 62.207,-88.379 60.156,-88.379C58.154,-88.379 56.103,-87.647 54.688,-85.059L11.914,-8.203C10.693,-6.006 9.961,-3.564 9.961,-1.758Z" style="fill-rule:nonzero;"/>
        </g>
        <g id="Regular-M" transform="matrix(1,0,0,1,1390.76,1126)">
            <g>
                <path d="M59.082,-88.438C39.162,-88.041 23.663,-53.805 15.768,-32.036C11.978,-21.586 9.961,-3.369 9.961,-1.807C9.961,9.766 30.615,18.262 59.082,18.262" style="fill-rule:nonzero;"/>
                <g transform="matrix(2.1454,0,0,1.56369,-2952.63,-1758.31)">
                    <path d="M1388.47,1091.01L1388.85,1124.78L1376.21,1121.73L1376.3,1110.01L1388.47,1091.01Z"/>
                </g>
            </g>
            <g transform="matrix(-1,0,0,1,118.164,0)">
                <path d="M59.082,-88.438C39.162,-88.041 23.663,-53.805 15.768,-32.036C11.978,-21.586 9.961,-3.369 9.961,-1.807C9.961,9.766 30.615,18.262 59.082,18.262" style="fill-rule:nonzero;"/>
                <g transform="matrix(2.1454,0,0,1.56369,-2952.63,-1758.31)">
                    <path d="M1388.47,1091.01L1388.85,1124.78L1376.21,1121.73L1376.3,1110.01L1388.47,1091.01Z"/>
                </g>
            </g>
        </g>
        <g id="Light-M" transform="matrix(1,0,0,1,1094.88,1126)">
            <path d="M9.961,-1.807C9.961,9.131 30.322,17.481 58.252,17.481C86.182,17.481 106.543,9.131 106.543,-1.807C106.543,-3.271 105.957,-5.225 104.98,-6.982L62.5,-83.74C61.328,-85.791 59.766,-86.377 58.252,-86.377C56.738,-86.377 55.176,-85.791 54.004,-83.74L11.523,-6.982C10.547,-5.225 9.961,-3.271 9.961,-1.807Z" style="fill-rule:nonzero;"/>
        </g>
        <g id="Thin-M" transform="matrix(1,0,0,1,799.269,1126)">
            <path d="M9.961,-1.807C9.961,8.301 29.932,16.357 57.178,16.357C84.375,16.357 104.346,8.301 104.346,-1.807C104.346,-3.125 103.955,-4.541 103.223,-5.908L60.889,-81.982C60.01,-83.496 58.643,-84.229 57.178,-84.229C55.713,-84.229 54.297,-83.496 53.418,-81.982L11.084,-5.908C10.303,-4.541 9.961,-3.125 9.961,-1.807Z" style="fill-rule:nonzero;"/>
        </g>
        <g id="Ultralight-M" transform="matrix(1,0,0,1,503.119,1126)">
            <path d="M9.961,-1.807C9.961,7.91 29.785,15.82 56.592,15.82C83.447,15.82 103.223,7.91 103.223,-1.807C103.223,-3.027 102.93,-4.199 102.295,-5.371L60.059,-81.055C59.326,-82.324 58.008,-83.154 56.592,-83.154C55.176,-83.154 53.857,-82.324 53.125,-81.055L10.889,-5.371C10.205,-4.199 9.961,-3.027 9.961,-1.807Z" style="fill-rule:nonzero;"/>
        </g>
        <g id="Black-S" transform="matrix(1,0,0,1,2882.42,696)">
            <path d="M7.813,-8.887C7.861,1.807 23.682,10.156 50.977,10.156C78.272,10.156 94.092,1.807 94.141,-8.887C94.141,-11.035 93.506,-13.232 92.188,-15.527L58.398,-74.17C56.934,-76.758 54.102,-78.32 50.977,-78.32C47.852,-78.32 45.02,-76.758 43.555,-74.17L9.766,-15.527C8.447,-13.232 7.813,-11.035 7.813,-8.887Z" style="fill-rule:nonzero;"/>
        </g>
        <g id="Heavy-S" transform="matrix(1,0,0,1,2586.71,696)">
            <path d="M7.813,-8.936C7.861,1.465 23.779,9.424 49.951,9.424C76.123,9.424 92.09,1.465 92.139,-8.936C92.139,-10.889 91.504,-13.037 90.234,-15.185L56.543,-74.365C55.127,-76.807 52.637,-78.076 49.951,-78.076C47.266,-78.076 44.775,-76.807 43.408,-74.365L9.668,-15.185C8.447,-13.037 7.813,-10.889 7.813,-8.936Z" style="fill-rule:nonzero;"/>
        </g>
        <g id="Bold-S" transform="matrix(1,0,0,1,2291.15,696)">
            <path d="M7.813,-8.984C7.861,1.074 23.926,8.643 48.828,8.643C73.779,8.643 89.844,1.074 89.844,-8.984C89.844,-10.693 89.209,-12.793 88.086,-14.844L54.443,-74.561C53.125,-76.904 51.025,-77.832 48.828,-77.832C46.631,-77.832 44.531,-76.904 43.213,-74.561L9.619,-14.844C8.447,-12.793 7.813,-10.693 7.813,-8.984Z" style="fill-rule:nonzero;"/>
        </g>
        <g id="Semibold-S" transform="matrix(1,0,0,1,1995.22,696)">
            <path d="M7.813,-8.984C7.813,0.83 23.975,8.057 48.047,8.057C72.119,8.057 88.281,0.83 88.281,-8.984C88.281,-10.547 87.647,-12.647 86.572,-14.6L53.027,-74.707C51.758,-76.953 49.902,-77.637 48.047,-77.637C46.191,-77.637 44.336,-76.953 43.115,-74.707L9.521,-14.6C8.447,-12.647 7.813,-10.547 7.813,-8.984Z" style="fill-rule:nonzero;"/>
        </g>
        <g id="Medium-S" transform="matrix(1,0,0,1,1699.09,696)">
            <path d="M7.813,-8.984C7.813,0.586 24.023,7.666 47.461,7.666C70.898,7.666 87.109,0.586 87.109,-8.984C87.109,-10.449 86.475,-12.549 85.449,-14.404L51.904,-74.805C50.732,-77.002 49.072,-77.539 47.461,-77.539C45.85,-77.539 44.238,-77.002 43.018,-74.805L9.473,-14.404C8.447,-12.549 7.813,-10.449 7.813,-8.984Z" style="fill-rule:nonzero;"/>
        </g>
        <g id="Regular-S" transform="matrix(1,0,0,1,1403.14,696)">
            <path d="M7.813,-9.033C7.813,0.342 24.121,7.08 46.68,7.08C69.287,7.08 85.596,0.342 85.596,-9.033C85.596,-10.352 84.912,-12.354 83.984,-14.111L50.488,-74.951C49.365,-77.051 47.949,-77.344 46.68,-77.344C45.459,-77.344 44.043,-77.051 42.92,-74.951L9.424,-14.111C8.447,-12.354 7.813,-10.352 7.813,-9.033Z" style="fill-rule:nonzero;"/>
        </g>
        <g id="Light-S" transform="matrix(1,0,0,1,1107.16,696)">
            <path d="M7.813,-9.033C7.813,-0.195 23.877,6.348 45.947,6.348C68.066,6.348 84.131,-0.195 84.131,-9.033C84.131,-10.254 83.594,-11.914 82.764,-13.428L49.414,-73.731C48.438,-75.488 47.168,-75.928 45.947,-75.928C44.727,-75.928 43.457,-75.488 42.481,-73.731L9.131,-13.428C8.301,-11.914 7.813,-10.254 7.813,-9.033Z" style="fill-rule:nonzero;"/>
        </g>
        <g id="Thin-S" transform="matrix(1,0,0,1,811.427,696)">
            <path d="M7.813,-9.033C7.813,-0.928 23.535,5.42 45.02,5.42C66.455,5.42 82.178,-0.928 82.178,-9.033C82.178,-10.107 81.836,-11.328 81.201,-12.451L47.998,-72.168C47.266,-73.486 46.143,-74.023 45.02,-74.023C43.848,-74.023 42.725,-73.486 41.992,-72.168L8.789,-12.451C8.154,-11.328 7.813,-10.107 7.813,-9.033Z" style="fill-rule:nonzero;"/>
        </g>
        <g id="Ultralight-S" transform="matrix(1,0,0,1,515.204,696)">
            <path d="M7.813,-9.033C7.813,-1.318 23.389,4.883 44.482,4.883C65.625,4.883 81.201,-1.318 81.201,-9.033C81.201,-10.01 80.908,-10.986 80.42,-11.963L47.266,-71.387C46.68,-72.461 45.606,-73.096 44.482,-73.096C43.359,-73.096 42.334,-72.461 41.699,-71.387L8.594,-11.963C8.008,-10.986 7.813,-10.01 7.813,-9.033Z" style="fill-rule:nonzero;"/>
        </g>
    </g>
</svg>
